<svg width="1710" height="1439" viewBox="0 0 1710 1439" fill="none" xmlns="http://www.w3.org/2000/svg">
<path d="M1293.85 -950.153C1295.48 -948.518 1296.3 -947.7 1296.57 -946.638C1296.84 -945.575 1296.52 -944.465 1295.87 -942.246L885.813 456.421C883.995 462.62 883.087 465.72 884.764 467.397C886.441 469.075 889.541 468.166 895.741 466.348L2294.41 56.2951C2296.63 55.6444 2297.74 55.3191 2298.8 55.5905C2299.86 55.8621 2300.68 56.6797 2302.31 58.3151L2819.84 575.841C2824.09 580.095 2826.22 582.222 2825.66 584.429C2825.09 586.637 2822.21 587.483 2816.43 589.175L-74.2658 1436.36C-80.4648 1438.17 -83.5642 1439.08 -85.2414 1437.4C-86.9187 1435.73 -86.0101 1432.63 -84.1928 1426.43L763.205 -1464.06C764.897 -1469.83 765.743 -1472.71 767.951 -1473.28C770.158 -1473.84 772.285 -1471.71 776.539 -1467.46L1293.85 -950.153Z" fill="url(#paint0_linear_2060_22628)" fill-opacity="0.2"/>
<defs>
<linearGradient id="paint0_linear_2060_22628" x1="672.072" y1="1736.1" x2="672.072" y2="-387.96" gradientUnits="userSpaceOnUse">
<stop stop-color="#9F20FF"/>
<stop offset="0.435" stop-color="#6B48E3"/>
<stop offset="0.925" stop-color="white" stop-opacity="0"/>
</linearGradient>
</defs>
</svg>
