<svg width="216" height="32" viewBox="0 0 216 32" fill="none" xmlns="http://www.w3.org/2000/svg">
<rect width="32" height="32" rx="6" fill="url(#paint0_linear_2272_21569)"/>
<g clip-path="url(#clip0_2272_21569)">
<path d="M11.0118 6.88378H7.06001L9.03547 10.4999L8.01574 12.3681L4 5.01562H12.0315L11.0118 6.88378Z" fill="white"/>
<path d="M14.0725 19.7197L16 23.2487L17.9274 19.7197H19.9686L16 26.9841L12.0322 19.7197H14.0725Z" fill="white"/>
<path d="M22.9634 10.4999L24.9389 6.88378H20.988L19.9683 5.01562H27.9997L23.984 12.3681L22.9634 10.4999Z" fill="white"/>
</g>
<path d="M215.745 26.9368H213.339L205.917 17.0063L198.465 26.9368H196.161L204.735 15.5772L196.817 5.06348H199.223L206.033 14.1628L212.814 5.06348H215.133L207.2 15.5918L215.745 26.9368Z" fill="white"/>
<path d="M188.792 26.9368V5.06348H190.717V26.9368H188.792Z" fill="white"/>
<path d="M176.392 26.9368H174.467V6.78417H167.249V5.06348H183.624V6.78417H176.392V26.9368Z" fill="white"/>
<path d="M146.916 26.9368H144.889L153.959 5.06348H156.088L165.158 26.9368H163.117L160.536 20.6227H149.512L146.916 26.9368ZM150.197 18.902H159.85L155.024 7.13415L150.197 18.902Z" fill="white"/>
<path d="M139.576 26.9368H137.651V7.70285L129.66 23.262H127.866L119.904 7.79035V26.9368H117.979V5.06348H120.502L128.77 21.2643L137.009 5.06348H139.576V26.9368Z" fill="white"/>
<path d="M112.462 26.9368H95.751V23.612L106.381 8.98609H96.3343V5.06348H112.273V8.53404L101.759 23.0142H112.462V26.9368Z" fill="white"/>
<path d="M85.7466 26.9367V15.0059H90.2405V26.9367H85.7466Z" fill="white"/>
<path d="M86.7245 9.51317L88.6809 6.5792H84.7682L83.7583 5.06348H91.7122L87.7352 11.0289L86.7245 9.51317Z" fill="url(#paint1_linear_2272_21569)"/>
<path d="M81.8874 26.9368H76.9149L72.3215 19.0332H68.151V26.9368H63.6597V5.06348H72.5256C74.2852 5.06348 75.792 5.34054 77.0461 5.89466C78.3002 6.44878 79.2577 7.2508 79.9188 8.30072C80.5896 9.34092 80.925 10.5901 80.925 12.0483C80.925 13.5455 80.5701 14.8238 79.8605 15.8835C79.1605 16.9334 78.1592 17.7208 76.8565 18.2458L81.8874 26.9368ZM68.151 15.4606H72.1902C73.5221 15.4606 74.5428 15.1835 75.2525 14.6294C75.9719 14.0655 76.3316 13.2635 76.3316 12.2233C76.3316 11.1831 75.9719 10.386 75.2525 9.83185C74.5428 9.26801 73.5221 8.98609 72.1902 8.98609H68.151V15.4606Z" fill="white"/>
<path d="M42 26.9368V5.06348H49.4807C51.318 5.06348 52.9026 5.36484 54.2345 5.96757C55.576 6.56058 56.6065 7.41121 57.3259 8.51946C58.0453 9.61798 58.405 10.9304 58.405 12.4566C58.405 13.9829 58.0453 15.305 57.3259 16.423C56.6065 17.5312 55.5809 18.3867 54.249 18.9895C52.9269 19.5922 51.352 19.8936 49.5244 19.8936H46.4913V26.9368H42ZM46.4913 15.9564H49.0578C50.584 15.9564 51.7555 15.655 52.5721 15.0523C53.3984 14.4398 53.8116 13.5746 53.8116 12.4566C53.8116 11.3581 53.3984 10.5075 52.5721 9.90476C51.7555 9.29231 50.584 8.98609 49.0578 8.98609H46.4913V15.9564Z" fill="white"/>
<defs>
<linearGradient id="paint0_linear_2272_21569" x1="16" y1="0" x2="16" y2="32" gradientUnits="userSpaceOnUse">
<stop stop-color="#9F20FF"/>
<stop offset="1" stop-color="#6B48E3"/>
</linearGradient>
<linearGradient id="paint1_linear_2272_21569" x1="87.7352" y1="5.06348" x2="87.7352" y2="11.0289" gradientUnits="userSpaceOnUse">
<stop stop-color="#9F20FF"/>
<stop offset="1" stop-color="#6B48E3"/>
</linearGradient>
<clipPath id="clip0_2272_21569">
<rect width="24" height="21.9683" fill="white" transform="translate(4 5.01562)"/>
</clipPath>
</defs>
</svg>
